# xmcd
#
# Track frame offsets:
#	150
#	18530
#	32522
#	48055
#	62710
#	78077
#	93860
#	105795
#	123007
#	140490
#
# Disc length: 2084
#
# Revision: 4
# Processed by: cddbd v1.5.1PL0 Copyright (c) Steve Scherf et al.
# Submitted via: Grip 2.94
# Normalized: r3:TSWAP
#
DISCID=6708220a
DTITLE=Various Artist - Best of Country Vol 2
DYEAR=1900
DGENRE=
TTITLE0=Michelle Wright - Do Right by Me
TTITLE1=Marty Stuart - Arlene
TTITLE2=Ricky Van Shelton+Dolly Paron - Rockin' Years
TTITLE3=Dixiana - Waitin' For The Deal to Go Down
TTITLE4=Charlie Daniels - Honky Tonk Life
TTITLE5=Doug Stone - A Jukebox With A Country Song
TTITLE6=Sweethearts of The Rodeo - I Feel Fine
TTITLE7=Rodney Crowell - Lovin' All Night
TTITLE8=Ricky Skaggs - Same Of Love
TTITLE9=Mary-Chapin Carpenter - I Feel Lucky
EXTD=
EXTT0=
EXTT1=
EXTT2=
EXTT3=
EXTT4=
EXTT5=
EXTT6=
EXTT7=
EXTT8=
EXTT9=
PLAYORDER=
